<svg width="225" height="169" viewBox="0 0 225 169" xmlns="http://www.w3.org/2000/svg" xmlns:xlink="http://www.w3.org/1999/xlink"><svg width="225" height="169" viewBox="193.5 311.5 225 169"><linearGradient id="a" gradientUnits="userSpaceOnUse" x1="47.059" y1="775.255" x2="47.059" y2="708.98" gradientTransform="matrix(2.55 0 0 -2.55 186 2288.4)"><stop offset="0" stop-color="#4D4D4D"/><stop offset="1" stop-color="#bbb"/></linearGradient><path fill="url(#a)" d="M193.5 311.5h225v169h-225z"/><path d="M216.2 374.1V361h4.8c.8 0 1.6.1 2.2.3.6.2 1 .5 1.3.8s.6.7.7 1.2c.1.5.2.9.2 1.4 0 .7-.2 1.3-.5 1.8s-.7.8-1.1 1.1c-.5.3-1 .5-1.6.6-.6.1-1.2.2-1.8.2h-2.8v5.8l-1.4-.1zm4.2-6.9c.6 0 1.1 0 1.6-.1s.8-.2 1.2-.4c.3-.2.6-.5.7-.8.2-.4.3-.8.3-1.4 0-.8-.3-1.5-.8-1.9-.6-.5-1.4-.7-2.6-.7h-3.2v5.2c0 .1 2.8.1 2.8.1zm6.9 6.9V361h1.1v5c.5-.5.9-.8 1.4-1.1s1-.5 1.7-.5c.6 0 1.1.1 1.6.3.5.2.9.6 1.2 1 .2.4.4.7.4 1s.1.7.1 1.1v6.2h-1.1v-6.2c0-.8-.2-1.5-.6-1.9-.4-.5-1-.7-1.9-.7-.4 0-.7.1-.9.2-.3.1-.6.3-.7.4-.2.1-.4.4-.6.6-.2.2-.3.5-.4.7-.1.3-.2.6-.2.8v6h-1.1v.2zm13.9.2c-.7 0-1.2-.1-1.7-.4-.6-.2-1-.6-1.4-.9s-.7-.9-.9-1.6-.4-1.3-.4-2.2c0-.7.1-1.3.3-2 .2-.6.5-1.1.8-1.6.4-.5.8-.8 1.4-1 .6-.3 1.2-.4 2-.4.7 0 1.4.1 2 .4.6.3 1 .7 1.4 1 .4.4.7.9.8 1.6.2.6.3 1.2.3 2 0 .7-.1 1.4-.3 2.1-.2.6-.5 1.1-.8 1.6-.4.5-.8.7-1.4 1-.8.3-1.4.4-2.1.4zm3.2-5c0-.6-.1-1.1-.2-1.6s-.3-.9-.6-1.3-.6-.7-.9-.8c-.4-.2-.9-.3-1.5-.3s-1 .1-1.5.4-.7.6-1 .9-.5.7-.6 1.3c-.1.6-.2.9-.2 1.5s.1 1.1.2 1.6c.2.5.4.9.7 1.3.3.4.6.7 1 .8.4.2.8.3 1.4.3.6 0 1-.1 1.5-.4.4-.2.7-.6 1-.9.3-.4.5-.8.6-1.3 0-.4.1-.9.1-1.5zm6.5 4.8c-.1 0-.3.1-.6.1s-.5.1-.7.1c-.6 0-.9-.1-1.2-.4s-.5-.7-.5-1.5v-6.9h-1.3v-.9h1.3V362h1.1v2.6h1.8v.9H249v7.1c0 .2 0 .3.1.4.1.1.2.2.3.2.1.1.3.1.6.1h.5c.2 0 .3-.1.5-.1v.9zm5.5.2c-.7 0-1.2-.1-1.7-.4-.6-.2-1-.6-1.4-.9-.4-.4-.7-.9-.9-1.6s-.4-1.3-.4-2.2c0-.7.1-1.3.3-2 .2-.6.5-1.1.8-1.6.4-.5.8-.8 1.4-1 .6-.3 1.2-.4 2-.4.7 0 1.4.1 2 .4.6.3 1 .7 1.4 1s.7.9.8 1.6c.2.6.3 1.2.3 2 0 .7-.1 1.4-.3 2.1-.2.6-.5 1.1-.8 1.6s-.8.7-1.4 1c-.9.3-1.4.4-2.1.4zm3.2-5c0-.6-.1-1.1-.2-1.6s-.3-.9-.6-1.3-.6-.7-.9-.8c-.4-.2-.9-.3-1.5-.3s-1 .1-1.5.4c-.5.3-.7.6-1 .9-.3.4-.5.7-.6 1.3-.1.6-.2.9-.2 1.5s.1 1.1.2 1.6c.2.5.4.9.7 1.3.3.4.6.7 1 .8.4.2.8.3 1.4.3.6 0 1-.1 1.5-.4.4-.2.7-.6 1-.9s.5-.8.6-1.3c.1-.4.1-.9.1-1.5zM222.9 386.6c-.2-.7-.6-1.2-1-1.7-.5-.4-1.1-.6-1.8-.6-.6 0-1 .1-1.4.4-.4.2-.7.6-.9.9-.3.4-.5.8-.6 1.3-.1.5-.2.9-.2 1.4 0 .5.1 1 .2 1.5s.3.9.6 1.3.6.7.9.9c.4.2.8.4 1.5.4.8 0 1.5-.2 2-.7.5-.5.8-1 .9-1.9h1.1c-.1.6-.3 1-.5 1.4-.2.5-.5.8-.8 1.1-.4.2-.8.5-1.3.7-.5.2-.9.2-1.6.2-.7 0-1.4-.1-2-.4s-1-.6-1.3-1c-.4-.5-.7-.9-.7-1.6-.2-.6-.3-1.2-.3-2 0-.7.1-1.3.3-1.9.2-.6.5-1.1.8-1.6.4-.5.8-.8 1.4-1.1.6-.3 1.1-.4 1.9-.4 1.1 0 2 .3 2.6.7.7.6 1.1 1.3 1.3 2.4h-1.1zm7.2 6.8c-.7 0-1.2-.1-1.7-.4-.6-.2-1-.6-1.4-.9s-.7-.9-.9-1.6c-.2-.7-.4-1.3-.4-2.2 0-.7.1-1.3.3-2 .2-.6.5-1.1.8-1.6s.8-.8 1.4-1c.6-.3 1.2-.4 2-.4.7 0 1.4.1 2 .4.6.3 1 .7 1.4 1 .4.4.7.9.8 1.6.2.6.3 1.2.3 2s-.1 1.4-.3 2.1c-.2.6-.5 1.1-.8 1.6-.7.5-1.2.8-1.7 1-.6.3-1.1.4-1.8.4zm3.2-5c0-.6-.1-1.1-.2-1.6s-.3-.9-.6-1.3-.6-.7-.9-.8c-.4-.2-.9-.3-1.5-.3s-1 .1-1.5.4-.7.6-1 .9-.5.7-.6 1.3c-.1.6-.2.9-.2 1.5s.1 1.1.2 1.6c.2.5.4.9.7 1.3.3.4.6.7 1 .8.4.2.8.3 1.4.3.6 0 1-.1 1.5-.4.4-.2.7-.6 1-.9.3-.4.5-.8.6-1.3 0-.4.1-.9.1-1.5zm4.1 4.8h-1.1v-9.5h1.1v1.4c.3-.6.7-.9 1.2-1.2s1.1-.5 1.7-.5c.5 0 .8 0 1.1.2.3.1.6.2.7.4l.6.6c.2.2.3.5.4.7.3-.7.7-1.1 1.3-1.4s1.1-.5 1.8-.5 1.1.1 1.5.3c.4.2.7.5.8.8.2.4.4.7.4 1.2.1.5.1.9.1 1.4v6h-1.1v-6.6c0-.7-.2-1.2-.5-1.6s-.8-.6-1.6-.6c-.4 0-.7.1-1.1.3-.4.2-.7.5-.9.8l-.3.6c-.1.2-.2.5-.2.7-.1.2-.1.5-.1.7v5.8h-1v-6.6c0-.7-.2-1.2-.5-1.6-.3-.4-.8-.6-1.6-.6-.4 0-.7.1-1.1.3s-.7.5-.9.8l-.3.6c-.1.2-.2.5-.2.7-.1.2-.1.5-.1.7v.7l-.1 5zm14.3-11.5v-1.6h1.2v1.6h-1.2zm.1 11.5v-9.5h1.1v9.5h-1.1zm5 0h-1.1v-9.5h1.1v1.3c.5-.5.9-.8 1.4-1.1.5-.3 1-.5 1.7-.5.6 0 1.1.1 1.6.3.5.2.9.6 1.2 1 .2.4.4.7.4 1s.1.7.1 1.1v6.2H262v-6.2c0-.8-.2-1.5-.6-1.9-.4-.5-1-.7-1.9-.7-.4 0-.7.1-.9.2-.3.1-.6.3-.7.4-.2.1-.4.4-.6.6-.2.2-.3.5-.4.7-.1.3-.2.6-.2.8v6.3zm16.4-9.5h1.1v8.5c0 .7-.1 1.2-.2 1.8-.1.6-.4 1.1-.7 1.5-.3.4-.7.7-1.3 1-.6.3-1.3.4-2.2.4-.7 0-1.3-.1-1.8-.3-.5-.2-.9-.4-1.2-.7-.3-.3-.6-.6-.7-.8-.2-.3-.3-.7-.3-.9h1.1c.1.4.2.7.4.8.2.2.4.4.7.6.3.1.6.2.8.3.3 0 .7.1.9.1.7 0 1.3-.1 1.8-.4s.7-.6 1-1c.2-.4.4-.8.5-1.4.1-.6.1-1 .1-1.6-.4.6-.8 1-1.4 1.3-.7.4-1.3.5-2 .5s-1.3-.1-1.9-.4c-.6-.3-.9-.7-1.3-1.1-.4-.5-.6-1-.7-1.6-.2-.6-.3-1.2-.3-1.9s.1-1.3.2-2c.2-.6.4-1.1.7-1.6.4-.5.7-.7 1.3-1 .6-.3 1.2-.4 2-.4.3 0 .7 0 .9.1.3.1.7.2.9.4.3.2.6.4.8.6.3.3.5.6.7.8.1 0 .1-1.6.1-1.6zm0 4.7c0-.6-.1-1.1-.2-1.6-.2-.5-.4-.9-.7-1.3s-.6-.7-1-.8c-.5-.2-.8-.3-1.4-.3-.5 0-.8.1-1.3.3-.5.2-.7.4-1 .7-.3.3-.6.7-.7 1.1-.1.5-.3.9-.3 1.6 0 .6 0 1.1.2 1.7.1.6.3.9.6 1.4.3.4.6.7 1 .9.4.2.9.4 1.5.4.5 0 .9-.1 1.3-.3.4-.2.7-.5 1-.8s.5-.7.7-1.2c.2-.7.3-1.2.3-1.8zM216.8 409.3c.2.8.5 1.4.9 1.7.5.4 1.1.5 1.9.5.4 0 .7 0 1-.2.3-.1.6-.2.7-.4.2-.2.4-.4.5-.6.1-.2.2-.5.2-.7 0-.5-.2-.8-.5-1-.3-.2-.7-.4-1.1-.6-.5-.1-.9-.3-1.5-.4-.6-.1-1-.2-1.5-.4s-.8-.5-1.1-.7c-.3-.4-.5-.8-.5-1.4 0-.7.3-1.4.8-2 .6-.5 1.4-.7 2.4-.7s1.9.2 2.5.7c.7.5 1 1.2 1.1 2.2h-1.1c-.1-.7-.4-1.2-.8-1.5s-1-.5-1.7-.5-1.2.2-1.6.5-.6.7-.6 1.2.2.7.5.9c.3.2.7.4 1.1.6.5.1.9.3 1.5.4s1 .3 1.5.5.8.5 1.1.8c.3.4.5.8.5 1.4 0 .5-.1.8-.3 1.2-.2.4-.5.7-.8.8-.4.2-.7.4-1.2.6-.5.2-.9.2-1.5.2s-1-.1-1.5-.3c-.5-.2-.8-.4-1.1-.7-.3-.3-.6-.7-.7-1-.2-.4-.3-.8-.3-1.2.1.1 1.2.1 1.2.1zm12.3 3.2c-.7 0-1.2-.1-1.7-.4-.6-.2-1-.6-1.4-.9s-.7-.9-.9-1.6-.4-1.3-.4-2.2c0-.7.1-1.3.3-2 .2-.6.5-1.1.8-1.6.4-.5.8-.8 1.4-1 .6-.3 1.2-.4 2-.4s1.4.1 2 .4 1 .7 1.4 1 .7.9.8 1.6c.2.6.3 1.2.3 2s-.1 1.4-.3 2.1c-.2.6-.5 1.1-.8 1.6-.4.5-.8.7-1.4 1-.9.3-1.5.4-2.1.4zm3.2-5c0-.6-.1-1.1-.2-1.6s-.3-.9-.6-1.3-.6-.7-.9-.8c-.4-.2-.9-.3-1.5-.3s-1 .1-1.5.4-.7.6-1 .9c-.3.4-.5.7-.6 1.3-.1.6-.2.9-.2 1.5s.1 1.1.2 1.6c.2.5.4.9.7 1.3s.6.7 1 .8c.4.2.8.3 1.4.3.6 0 1-.1 1.5-.4.4-.2.7-.6 1-.9s.5-.8.6-1.3c0-.5.1-.9.1-1.5zm6.9 5c-.7 0-1.2-.1-1.7-.4-.6-.2-1-.6-1.4-.9-.4-.4-.7-.9-.9-1.6s-.4-1.3-.4-2.2c0-.7.1-1.3.3-2 .2-.6.5-1.1.8-1.6.4-.5.8-.8 1.4-1 .6-.3 1.2-.4 2-.4s1.4.1 2 .4 1 .7 1.4 1 .7.9.8 1.6c.2.6.3 1.2.3 2s-.1 1.4-.3 2.1c-.2.6-.5 1.1-.8 1.6-.4.5-.8.7-1.4 1-.9.3-1.5.4-2.1.4zm3.2-5c0-.6-.1-1.1-.2-1.6s-.3-.9-.6-1.3-.6-.7-.9-.8c-.4-.2-.9-.3-1.5-.3s-1 .1-1.5.4-.7.6-1 .9c-.3.4-.5.7-.6 1.3-.1.6-.2.9-.2 1.5s.1 1.1.2 1.6c.2.5.4.9.7 1.3.3.4.6.7 1 .8.4.2.8.3 1.4.3s1-.1 1.5-.4c.4-.2.7-.6 1-.9.3-.4.5-.8.6-1.3.1-.5.1-.9.1-1.5zm4.3 4.8h-1.1v-9.5h1.1v1.3c.5-.5.9-.8 1.4-1.1.5-.3 1-.5 1.7-.5.6 0 1.1.1 1.6.3.5.2.9.6 1.2 1 .2.4.4.7.4 1s.1.7.1 1.1v6.2H252V406c0-.8-.2-1.5-.6-1.9-.4-.5-1-.7-1.9-.7-.4 0-.7.1-.9.2-.3.1-.6.3-.7.4-.2.1-.4.4-.6.6-.2.2-.3.5-.4.7-.1.3-.2.6-.2.8v6.2z" fill="#fff"/><path d="M409.7 361c-.3 0-.6.2-.7.5l-12.2 15c-.3.4-.1 1.1.3 1.1h3.1l9.5-10.9 8.4 9.5v-.8l-8-9-.5-.5-.4.5-9.5 10.7h-2.6v-.3l12.3-14.9c.1-.2.2-.2.3-.2.1 0 .2.1.3.2l8.1 9.8v-.8l-7.7-9.3c-.1-.4-.4-.6-.7-.6zm-3.4 71.7h11.9v-.6h-11.4v-11.3h11.4v-.6h-11.9zm-42.1-97.3h-15.7v3.9h15.8l-.1-3.9zm-.4 3.4h-14.7V336h14.7v2.8zm54.4 109h-11.3v-11.2h11.3v-.5h-11.8v12.2h11.8zm-95 .6h18.6V436h-18.6v12.4zm.6-11.8h17.5v11.2h-17.5v-11.2zm18.1-16.4h-18.6v12.4h18.6v-12.4zm-.6 11.9h-17.5v-11.3h17.5v11.3zm76.9 45.8H289c-.9 0-1.7-.8-1.7-1.9v-1.3c0-1 .7-1.9 1.7-1.9h12.8v-51.6h-15.4s-.1 0-.1-.1c0 0 0-.2.1-.2l.1-.1.1-.1 1.8-2.1h129.7v-.6H288.9l32.4-38.4c.3-.2.6-.4.8-.6 1.1-.7 2.1-1.4 4.1-1.4 2.6 0 5 1.9 5 1.9l.2.1h84.9l.2-.1s.7-.6 1.8-1v-.6c-1.2.6-2.1 1.2-2.1 1.2h-84.6s-.9-.7-2.2-1.3l.5.1 10-11.4 9.6 10.9h3.1c.4 0 .6-.7.3-1.1l-12.3-15c-.2-.3-.5-.5-.7-.5s-.6.2-.7.5l-12.3 15c-.3.4-.3.7.4.9-.4-.1-.7-.1-1-.1-2.8 0-3.7 1.1-5.3 2.1l-31.5 37.3 30-55.6h98.8v-.6h-56.1v-18.9c0-.2-.2-.4-.4-.4H351c-.2 0-.4.2-.4.4v18.9H319l-31.4 58.2-1.5 1.7c-.7.4-.5 1.4.3 1.4h14.8v50.5H289c-1.2 0-2.2 1.1-2.2 2.4v1.3c0 1.3 1 2.4 2.2 2.4h129.2v-.3zm-90.9-101.2l12.3-14.9c.1-.2.2-.2.3-.2s.2.1.3.2l12.3 14.9v.3h-2.6l-9.5-10.7-.5-.5-.4.5-9.8 11.1-2.2-.7c-.1.1-.2.1-.2 0zm24-35h10.2v18.4h-10.2v-18.4zM321 448.3v-28.1h-8.9v28.1h8.9zm-8.3-27.4h7.9v27h-7.9v-27zm76.2 34.2h-5.6v-29.4c-2.6-2.4-6.2-3.7-9.8-3.7-3.6 0-7.1 1.2-9.8 3.7v29.4H357l-6.8 21.8h47l-8.3-21.8zM364.3 426c2.4-2.2 5.7-3.4 9.3-3.4s6.7 1.2 9.3 3.4v29.1h-18.5V426zm-6.8 29.6h31.1l3.8 10.2h-38.1l3.2-10.2zm-3.4 10.8h38.6l1.3 3.4h-40.9l1-3.4zm-1.2 3.9H394v-.3l2.4 6.4h-45.5l2-6.1zm51.2-50h-8.4v28.1h8.4v-28.1zm-.5 27.6h-7.3v-27h7.3v27zM344 420.3v28.1h8.4v-28.1H344zm8 27.6h-7.4v-27h7.4v27z" fill="#D1D3D4"/></svg></svg>